#define ac_01_width 12
#define ac_01_height 7
static unsigned char ac_01_bits[] = {
   0xf0, 0x01, 0x10, 0x0f, 0x10, 0x01, 0x1f, 0x01, 0x10, 0x01, 0x10, 0x0f,
   0xf0, 0x01 };
